Oswald--300.ufo
<glyph name="exclam" format="1">
  <advance width="412"/>
  <unicode hex="0021"/>
  <outline>
    <contour>
      <point x="125" y="0" type="line"/>
      <point x="285" y="0" type="line"/>
      <point x="285" y="179" type="line"/>
      <point x="125" y="179" type="line"/>
    </contour>
    <contour>
      <point x="179" y="356" type="line"/>
      <point x="232" y="356" type="line"/>
      <point x="287" y="1658" type="line"/>
      <point x="127" y="1658" type="line"/>
    </contour>
  </outline>
</glyph>
<glyph name="slash" format="1">
  <advance width="705"/>
  <unicode hex="002F"/>
  <outline>
    <contour>
      <point x="50" y="0" type="line"/>
      <point x="182" y="0" type="line"/>
      <point x="654" y="1658" type="line"/>
      <point x="522" y="1658" type="line"/>
    </contour>
  </outline>
</glyph>
<glyph name="three" format="1">
  <advance width="980"/>
  <unicode hex="0033"/>
  <outline>
    <contour>
      <point x="488" y="-21" type="curve" smooth="yes"/>
      <point x="771" y="-21"/>
      <point x="882" y="172"/>
      <point x="882" y="453" type="curve" smooth="yes"/>
      <point x="882" y="716"/>
      <point x="767" y="839"/>
      <point x="645" y="873" type="curve"/>
      <point x="782" y="905"/>
      <point x="882" y="1028"/>
      <point x="882" y="1261" type="curve" smooth="yes"/>
      <point x="882" y="1505"/>
      <point x="763" y="1676"/>
      <point x="503" y="1676" type="curve" smooth="yes"/>
      <point x="228" y="1676"/>
      <point x="118" y="1519"/>
      <point x="118" y="1276" type="curve" smooth="yes"/>
      <point x="118" y="1238" type="line"/>
      <point x="264" y="1238" type="line"/>
      <point x="264" y="1244"/>
      <point x="264" y="1260"/>
      <point x="264" y="1266" type="curve" smooth="yes"/>
      <point x="266" y="1462"/>
      <point x="334" y="1554"/>
      <point x="503" y="1554" type="curve" smooth="yes"/>
      <point x="676" y="1554"/>
      <point x="729" y="1434"/>
      <point x="729" y="1262" type="curve" smooth="yes"/>
      <point x="729" y="1041"/>
      <point x="660" y="948"/>
      <point x="480" y="945" type="curve" smooth="yes"/>
      <point x="476" y="945"/>
      <point x="444" y="945"/>
      <point x="440" y="945" type="curve"/>
      <point x="440" y="804" type="line"/>
      <point x="445" y="804"/>
      <point x="477" y="803"/>
      <point x="482" y="803" type="curve" smooth="yes"/>
      <point x="664" y="797"/>
      <point x="729" y="655"/>
      <point x="729" y="451" type="curve" smooth="yes"/>
      <point x="729" y="199"/>
      <point x="643" y="103"/>
      <point x="488" y="103" type="curve" smooth="yes"/>
      <point x="322" y="103"/>
      <point x="266" y="212"/>
      <point x="264" y="390" type="curve" smooth="yes"/>
      <point x="264" y="396"/>
      <point x="264" y="417"/>
      <point x="264" y="423" type="curve"/>
      <point x="118" y="423" type="line"/>
      <point x="118" y="383" type="line" smooth="yes"/>
      <point x="118" y="138"/>
      <point x="230" y="-21"/>
    </contour>
  </outline>
</glyph>
<glyph name="eight" format="1">
  <advance width="993"/>
  <unicode hex="0038"/>
  <outline>
    <contour>
      <point x="497" y="-21" type="curve" smooth="yes"/>
      <point x="782" y="-21"/>
      <point x="887" y="163"/>
      <point x="887" y="445" type="curve" smooth="yes"/>
      <point x="887" y="733"/>
      <point x="759" y="814"/>
      <point x="648" y="871" type="curve"/>
      <point x="782" y="926"/>
      <point x="870" y="1045"/>
      <point x="870" y="1256" type="curve" smooth="yes"/>
      <point x="870" y="1498"/>
      <point x="768" y="1676"/>
      <point x="497" y="1676" type="curve" smooth="yes"/>
      <point x="225" y="1676"/>
      <point x="124" y="1501"/>
      <point x="124" y="1260" type="curve" smooth="yes"/>
      <point x="124" y="1048"/>
      <point x="212" y="926"/>
      <point x="345" y="871" type="curve"/>
      <point x="234" y="815"/>
      <point x="107" y="734"/>
      <point x="107" y="445" type="curve" smooth="yes"/>
      <point x="107" y="163"/>
      <point x="212" y="-21"/>
    </contour>
    <contour>
      <point x="497" y="100" type="curve" smooth="yes"/>
      <point x="334" y="100"/>
      <point x="253" y="208"/>
      <point x="253" y="445" type="curve" smooth="yes"/>
      <point x="253" y="646"/>
      <point x="317" y="785"/>
      <point x="497" y="800" type="curve" smooth="yes"/>
      <point x="677" y="785"/>
      <point x="740" y="646"/>
      <point x="740" y="445" type="curve" smooth="yes"/>
      <point x="740" y="209"/>
      <point x="661" y="100"/>
    </contour>
    <contour>
      <point x="497" y="938" type="curve" smooth="yes"/>
      <point x="325" y="946"/>
      <point x="272" y="1082"/>
      <point x="272" y="1261" type="curve" smooth="yes"/>
      <point x="272" y="1451"/>
      <point x="340" y="1555"/>
      <point x="497" y="1555" type="curve" smooth="yes"/>
      <point x="653" y="1555"/>
      <point x="722" y="1451"/>
      <point x="722" y="1261" type="curve" smooth="yes"/>
      <point x="722" y="1082"/>
      <point x="669" y="946"/>
    </contour>
  </outline>
</glyph>
<glyph name="less" format="1">
  <advance width="744"/>
  <unicode hex="003C"/>
  <outline>
    <contour>
      <point x="627" y="126" type="line"/>
      <point x="627" y="280" type="line"/>
      <point x="175" y="618" type="line"/>
      <point x="627" y="966" type="line"/>
      <point x="627" y="1122" type="line"/>
      <point x="59" y="692" type="line"/>
      <point x="59" y="544" type="line"/>
    </contour>
  </outline>
</glyph>
<glyph name="equal" format="1">
  <advance width="820"/>
  <unicode hex="003D"/>
  <outline>
    <contour>
      <point x="104" y="584" type="line"/>
      <point x="716" y="584" type="line"/>
      <point x="716" y="703" type="line"/>
      <point x="104" y="703" type="line"/>
    </contour>
    <contour>
      <point x="104" y="927" type="line"/>
      <point x="716" y="927" type="line"/>
      <point x="716" y="1047" type="line"/>
      <point x="104" y="1047" type="line"/>
    </contour>
  </outline>
</glyph>
<glyph name="question" format="1">
  <advance width="971"/>
  <unicode hex="003F"/>
  <outline>
    <contour>
      <point x="355" y="412" type="line"/>
      <point x="488" y="412" type="line"/>
      <point x="488" y="624" type="line"/>
      <point x="723" y="809"/>
      <point x="874" y="976"/>
      <point x="874" y="1247" type="curve" smooth="yes"/>
      <point x="874" y="1534"/>
      <point x="708" y="1679"/>
      <point x="482" y="1679" type="curve" smooth="yes"/>
      <point x="245" y="1679"/>
      <point x="70" y="1536"/>
      <point x="129" y="1274" type="curve" smooth="yes"/>
      <point x="145" y="1201" type="line"/>
      <point x="282" y="1230" type="line"/>
      <point x="268" y="1303" type="line" smooth="yes"/>
      <point x="235" y="1459"/>
      <point x="329" y="1548"/>
      <point x="481" y="1548" type="curve" smooth="yes"/>
      <point x="615" y="1548"/>
      <point x="729" y="1448"/>
      <point x="729" y="1250" type="curve" smooth="yes"/>
      <point x="729" y="1021"/>
      <point x="601" y="843"/>
      <point x="355" y="665" type="curve"/>
    </contour>
    <contour>
      <point x="349" y="1" type="line"/>
      <point x="498" y="1" type="line"/>
      <point x="498" y="178" type="line"/>
      <point x="349" y="178" type="line"/>
    </contour>
  </outline>
</glyph>
<glyph name="Q" format="1">
  <advance width="1085"/>
  <unicode hex="0051"/>
  <outline>
    <contour>
      <point x="884" y="-325" type="curve"/>
      <point x="904" y="-195" type="line"/>
      <point x="851" y="-160"/>
      <point x="764" y="-61"/>
      <point x="713" y="6" type="curve"/>
      <point x="908" y="68"/>
      <point x="973" y="250"/>
      <point x="973" y="488" type="curve" smooth="yes"/>
      <point x="973" y="1178" type="line" smooth="yes"/>
      <point x="973" y="1476"/>
      <point x="864" y="1676"/>
      <point x="542" y="1676" type="curve" smooth="yes"/>
      <point x="220" y="1676"/>
      <point x="111" y="1478"/>
      <point x="111" y="1178" type="curve" smooth="yes"/>
      <point x="111" y="490" type="line" smooth="yes"/>
      <point x="111" y="189"/>
      <point x="213" y="-21"/>
      <point x="542" y="-21" type="curve" smooth="yes"/>
      <point x="560" y="-21"/>
      <point x="577" y="-20"/>
      <point x="594" y="-18" type="curve"/>
      <point x="685" y="-148"/>
      <point x="793" y="-281"/>
    </contour>
    <contour>
      <point x="542" y="105" type="curve" smooth="yes"/>
      <point x="323" y="105"/>
      <point x="269" y="246"/>
      <point x="269" y="456" type="curve" smooth="yes"/>
      <point x="269" y="1206" type="line" smooth="yes"/>
      <point x="269" y="1416"/>
      <point x="323" y="1552"/>
      <point x="542" y="1552" type="curve" smooth="yes"/>
      <point x="761" y="1552"/>
      <point x="815" y="1416"/>
      <point x="815" y="1206" type="curve" smooth="yes"/>
      <point x="815" y="456" type="line" smooth="yes"/>
      <point x="815" y="246"/>
      <point x="761" y="105"/>
    </contour>
  </outline>
</glyph>
<glyph name="S" format="1">
  <advance width="942"/>
  <unicode hex="0053"/>
  <outline>
    <contour>
      <point x="499" y="-20" type="curve" smooth="yes"/>
      <point x="722" y="-20"/>
      <point x="880" y="109"/>
      <point x="880" y="357" type="curve" smooth="yes"/>
      <point x="880" y="545"/>
      <point x="766" y="691"/>
      <point x="637" y="815" type="curve" smooth="yes"/>
      <point x="345" y="1092" type="line" smooth="yes"/>
      <point x="259" y="1175"/>
      <point x="228" y="1243"/>
      <point x="228" y="1333" type="curve" smooth="yes"/>
      <point x="228" y="1484"/>
      <point x="324" y="1549"/>
      <point x="462" y="1553" type="curve" smooth="yes"/>
      <point x="650" y="1559"/>
      <point x="709" y="1428"/>
      <point x="726" y="1221" type="curve"/>
      <point x="858" y="1255" type="line"/>
      <point x="836" y="1560"/>
      <point x="703" y="1678"/>
      <point x="460" y="1676" type="curve" smooth="yes"/>
      <point x="235" y="1675"/>
      <point x="87" y="1549"/>
      <point x="87" y="1320" type="curve" smooth="yes"/>
      <point x="87" y="1190"/>
      <point x="133" y="1086"/>
      <point x="237" y="986" type="curve" smooth="yes"/>
      <point x="531" y="704" type="line" smooth="yes"/>
      <point x="654" y="585"/>
      <point x="734" y="492"/>
      <point x="734" y="346" type="curve" smooth="yes"/>
      <point x="734" y="179"/>
      <point x="647" y="106"/>
      <point x="500" y="106" type="curve" smooth="yes"/>
      <point x="298" y="106"/>
      <point x="243" y="267"/>
      <point x="222" y="470" type="curve"/>
      <point x="83" y="430" type="line"/>
      <point x="103" y="159"/>
      <point x="226" y="-20"/>
    </contour>
  </outline>
</glyph>
<glyph name="Z" format="1">
  <advance width="834"/>
  <unicode hex="005A"/>
  <outline>
    <contour>
      <point x="69" y="0" type="line"/>
      <point x="794" y="0" type="line"/>
      <point x="794" y="117" type="line"/>
      <point x="223" y="117" type="line"/>
      <point x="792" y="1577" type="line"/>
      <point x="792" y="1658" type="line"/>
      <point x="114" y="1658" type="line"/>
      <point x="114" y="1541" type="line"/>
      <point x="625" y="1541" type="line"/>
      <point x="69" y="118" type="line"/>
    </contour>
  </outline>
</glyph>
<glyph name="w" format="1">
  <advance width="1177"/>
  <unicode hex="0077"/>
  <outline>
    <contour>
      <point x="257" y="0" type="line"/>
      <point x="408" y="0" type="line"/>
      <point x="593" y="963" type="line"/>
      <point x="781" y="0" type="line"/>
      <point x="922" y="0" type="line"/>
      <point x="1113" y="1184" type="line"/>
      <point x="986" y="1184" type="line"/>
      <point x="843" y="199" type="line"/>
      <point x="655" y="1184" type="line"/>
      <point x="526" y="1184" type="line"/>
      <point x="340" y="195" type="line"/>
      <point x="192" y="1184" type="line"/>
      <point x="64" y="1184" type="line"/>
    </contour>
  </outline>
</glyph>
<glyph name="cent" format="1">
  <advance width="783"/>
  <unicode hex="00A2"/>
  <outline>
    <contour>
      <point x="355" y="-204" type="line"/>
      <point x="417" y="-204" type="line"/>
      <point x="417" y="-18" type="line"/>
      <point x="666" y="-14"/>
      <point x="711" y="151"/>
      <point x="711" y="387" type="curve" smooth="yes"/>
      <point x="711" y="445" type="line"/>
      <point x="572" y="445" type="line"/>
      <point x="572" y="380" type="line" smooth="yes"/>
      <point x="572" y="188"/>
      <point x="552" y="94"/>
      <point x="411" y="94" type="curve" smooth="yes"/>
      <point x="277" y="94"/>
      <point x="242" y="181"/>
      <point x="242" y="418" type="curve" smooth="yes"/>
      <point x="242" y="750" type="line" smooth="yes"/>
      <point x="242" y="1000"/>
      <point x="269" y="1090"/>
      <point x="410" y="1090" type="curve" smooth="yes"/>
      <point x="527" y="1090"/>
      <point x="572" y="1030"/>
      <point x="572" y="823" type="curve" smooth="yes"/>
      <point x="572" y="767" type="line"/>
      <point x="711" y="767" type="line"/>
      <point x="711" y="823" type="line" smooth="yes"/>
      <point x="711" y="1045"/>
      <point x="661" y="1193"/>
      <point x="425" y="1201" type="curve"/>
      <point x="425" y="1385" type="line"/>
      <point x="363" y="1385" type="line"/>
      <point x="363" y="1200" type="line"/>
      <point x="149" y="1182"/>
      <point x="92" y="1035"/>
      <point x="92" y="725" type="curve" smooth="yes"/>
      <point x="92" y="449" type="line" smooth="yes"/>
      <point x="92" y="199"/>
      <point x="127" y="8"/>
      <point x="355" y="-16" type="curve"/>
    </contour>
  </outline>
</glyph>
<glyph name="currency" format="1">
  <advance width="1078"/>
  <unicode hex="00A4"/>
  <outline>
    <contour>
      <point x="86" y="381" type="line"/>
      <point x="248" y="543" type="line"/>
      <point x="324" y="471"/>
      <point x="427" y="427"/>
      <point x="541" y="428" type="curve"/>
      <point x="655" y="427"/>
      <point x="758" y="471"/>
      <point x="834" y="543" type="curve"/>
      <point x="996" y="381" type="line"/>
      <point x="1026" y="411" type="line"/>
      <point x="863" y="573" type="line"/>
      <point x="932" y="650"/>
      <point x="974" y="754"/>
      <point x="974" y="866" type="curve" smooth="yes"/>
      <point x="974" y="979"/>
      <point x="932" y="1082"/>
      <point x="864" y="1159" type="curve"/>
      <point x="1026" y="1321" type="line"/>
      <point x="996" y="1351" type="line"/>
      <point x="834" y="1189" type="line"/>
      <point x="758" y="1261"/>
      <point x="655" y="1305"/>
      <point x="541" y="1304" type="curve"/>
      <point x="427" y="1305"/>
      <point x="324" y="1261"/>
      <point x="248" y="1189" type="curve"/>
      <point x="86" y="1351" type="line"/>
      <point x="56" y="1321" type="line"/>
      <point x="219" y="1159" type="line"/>
      <point x="150" y="1082"/>
      <point x="108" y="979"/>
      <point x="108" y="866" type="curve" smooth="yes"/>
      <point x="108" y="754"/>
      <point x="150" y="650"/>
      <point x="219" y="573" type="curve"/>
      <point x="56" y="411" type="line"/>
    </contour>
    <contour>
      <point x="541" y="498" type="curve" smooth="yes"/>
      <point x="339" y="498"/>
      <point x="184" y="664"/>
      <point x="184" y="866" type="curve" smooth="yes"/>
      <point x="184" y="1069"/>
      <point x="339" y="1235"/>
      <point x="541" y="1235" type="curve" smooth="yes"/>
      <point x="744" y="1235"/>
      <point x="898" y="1069"/>
      <point x="898" y="866" type="curve" smooth="yes"/>
      <point x="898" y="664"/>
      <point x="744" y="498"/>
    </contour>
  </outline>
</glyph>
<glyph name="section" format="1">
  <advance width="820"/>
  <unicode hex="00A7"/>
  <outline>
    <contour>
      <point x="415" y="-18" type="curve" smooth="yes"/>
      <point x="599" y="-18"/>
      <point x="727" y="87"/>
      <point x="725" y="269" type="curve" smooth="yes"/>
      <point x="724" y="378"/>
      <point x="656" y="450"/>
      <point x="594" y="514" type="curve"/>
      <point x="677" y="558"/>
      <point x="748" y="625"/>
      <point x="754" y="748" type="curve" smooth="yes"/>
      <point x="761" y="879"/>
      <point x="700" y="971"/>
      <point x="602" y="1049" type="curve" smooth="yes"/>
      <point x="372" y="1224" type="line" smooth="yes"/>
      <point x="313" y="1275"/>
      <point x="258" y="1339"/>
      <point x="258" y="1403" type="curve" smooth="yes"/>
      <point x="258" y="1501"/>
      <point x="322" y="1553"/>
      <point x="409" y="1553" type="curve" smooth="yes"/>
      <point x="525" y="1553"/>
      <point x="576" y="1427"/>
      <point x="605" y="1341" type="curve"/>
      <point x="722" y="1379" type="line"/>
      <point x="681" y="1521"/>
      <point x="597" y="1675"/>
      <point x="412" y="1675" type="curve" smooth="yes"/>
      <point x="227" y="1675"/>
      <point x="110" y="1570"/>
      <point x="110" y="1416" type="curve" smooth="yes"/>
      <point x="110" y="1313"/>
      <point x="184" y="1233"/>
      <point x="260" y="1170" type="curve"/>
      <point x="162" y="1134"/>
      <point x="79" y="1054"/>
      <point x="79" y="925" type="curve" smooth="yes"/>
      <point x="79" y="826"/>
      <point x="131" y="753"/>
      <point x="213" y="689" type="curve" smooth="yes"/>
      <point x="442" y="501" type="line" smooth="yes"/>
      <point x="576" y="373"/>
      <point x="590" y="318"/>
      <point x="587" y="256" type="curve" smooth="yes"/>
      <point x="584" y="161"/>
      <point x="517" y="103"/>
      <point x="417" y="103" type="curve" smooth="yes"/>
      <point x="302" y="103"/>
      <point x="233" y="221"/>
      <point x="203" y="336" type="curve"/>
      <point x="89" y="298" type="line"/>
      <point x="128" y="133"/>
      <point x="226" y="-18"/>
    </contour>
    <contour>
      <point x="498" y="597" type="curve"/>
      <point x="294" y="792" type="line" smooth="yes"/>
      <point x="251" y="832"/>
      <point x="226" y="879"/>
      <point x="226" y="926" type="curve" smooth="yes"/>
      <point x="226" y="1008"/>
      <point x="282" y="1065"/>
      <point x="353" y="1090" type="curve"/>
      <point x="512" y="958" type="line" smooth="yes"/>
      <point x="595" y="889"/>
      <point x="630" y="823"/>
      <point x="622" y="748" type="curve" smooth="yes"/>
      <point x="616" y="673"/>
      <point x="552" y="620"/>
    </contour>
  </outline>
</glyph>
<glyph name="registered" format="1">
  <advance width="1795"/>
  <unicode hex="00AE"/>
  <outline>
    <contour>
      <point x="612" y="252" type="line"/>
      <point x="745" y="252" type="line"/>
      <point x="745" y="812" type="line"/>
      <point x="938" y="812" type="line"/>
      <point x="1129" y="252" type="line"/>
      <point x="1267" y="252" type="line"/>
      <point x="1061" y="836" type="line"/>
      <point x="1198" y="870"/>
      <point x="1253" y="982"/>
      <point x="1253" y="1122" type="curve" smooth="yes"/>
      <point x="1253" y="1301"/>
      <point x="1178" y="1437"/>
      <point x="948" y="1437" type="curve" smooth="yes"/>
      <point x="612" y="1437" type="line"/>
    </contour>
    <contour>
      <point x="745" y="893" type="line"/>
      <point x="745" y="1343" type="line"/>
      <point x="936" y="1343" type="line" smooth="yes"/>
      <point x="1076" y="1343"/>
      <point x="1117" y="1264"/>
      <point x="1117" y="1125" type="curve" smooth="yes"/>
      <point x="1117" y="973"/>
      <point x="1081" y="893"/>
      <point x="913" y="893" type="curve" smooth="yes"/>
    </contour>
    <contour>
      <point x="898" y="55" type="curve" smooth="yes"/>
      <point x="391" y="55"/>
      <point x="171" y="443"/>
      <point x="171" y="836" type="curve" smooth="yes"/>
      <point x="171" y="1231"/>
      <point x="391" y="1615"/>
      <point x="898" y="1615" type="curve" smooth="yes"/>
      <point x="1401" y="1615"/>
      <point x="1623" y="1231"/>
      <point x="1623" y="836" type="curve" smooth="yes"/>
      <point x="1623" y="443"/>
      <point x="1401" y="55"/>
    </contour>
    <contour>
      <point x="898" y="-25" type="curve" smooth="yes"/>
      <point x="1481" y="-25"/>
      <point x="1716" y="421"/>
      <point x="1716" y="836" type="curve" smooth="yes"/>
      <point x="1716" y="1251"/>
      <point x="1479" y="1696"/>
      <point x="898" y="1696" type="curve" smooth="yes"/>
      <point x="316" y="1696"/>
      <point x="79" y="1251"/>
      <point x="79" y="836" type="curve" smooth="yes"/>
      <point x="79" y="422"/>
      <point x="316" y="-25"/>
    </contour>
  </outline>
</glyph>
<glyph name="threesuperior" format="1">
  <advance width="850"/>
  <unicode hex="00B3"/>
  <outline>
    <contour>
      <point x="439" y="675" type="curve" smooth="yes"/>
      <point x="624" y="675"/>
      <point x="713" y="803"/>
      <point x="713" y="992" type="curve" smooth="yes"/>
      <point x="713" y="1171"/>
      <point x="630" y="1233"/>
      <point x="567" y="1257" type="curve"/>
      <point x="636" y="1274"/>
      <point x="709" y="1365"/>
      <point x="709" y="1515" type="curve" smooth="yes"/>
      <point x="709" y="1690"/>
      <point x="624" y="1799"/>
      <point x="445" y="1799" type="curve" smooth="yes"/>
      <point x="260" y="1799"/>
      <point x="175" y="1688"/>
      <point x="175" y="1527" type="curve" smooth="yes"/>
      <point x="175" y="1471" type="line"/>
      <point x="308" y="1471" type="line"/>
      <point x="308" y="1531" type="line" smooth="yes"/>
      <point x="308" y="1635"/>
      <point x="352" y="1691"/>
      <point x="448" y="1691" type="curve" smooth="yes"/>
      <point x="535" y="1691"/>
      <point x="584" y="1633"/>
      <point x="584" y="1522" type="curve" smooth="yes"/>
      <point x="584" y="1382"/>
      <point x="536" y="1301"/>
      <point x="442" y="1301" type="curve" smooth="yes"/>
      <point x="362" y="1301" type="line"/>
      <point x="362" y="1196" type="line"/>
      <point x="445" y="1196" type="line" smooth="yes"/>
      <point x="536" y="1196"/>
      <point x="588" y="1105"/>
      <point x="588" y="979" type="curve" smooth="yes"/>
      <point x="588" y="849"/>
      <point x="529" y="788"/>
      <point x="439" y="788" type="curve" smooth="yes"/>
      <point x="344" y="788"/>
      <point x="305" y="853"/>
      <point x="305" y="962" type="curve" smooth="yes"/>
      <point x="305" y="1012" type="line"/>
      <point x="172" y="1012" type="line"/>
      <point x="172" y="967" type="line" smooth="yes"/>
      <point x="172" y="785"/>
      <point x="246" y="675"/>
    </contour>
  </outline>
</glyph>
<glyph name="acute" format="1">
  <advance width="477"/>
  <unicode hex="00B4"/>
  <outline>
    <contour>
      <point x="97" y="1258" type="line"/>
      <point x="175" y="1258" type="line"/>
      <point x="376" y="1658" type="line"/>
      <point x="225" y="1658" type="line"/>
    </contour>
  </outline>
</glyph>
<glyph name="guillemotright" format="1">
  <advance width="901"/>
  <unicode hex="00BB"/>
  <outline>
    <contour>
      <point x="111" y="176" type="line"/>
      <point x="463" y="617" type="line"/>
      <point x="463" y="684" type="line"/>
      <point x="111" y="1126" type="line"/>
      <point x="111" y="935" type="line"/>
      <point x="338" y="651" type="line"/>
      <point x="111" y="367" type="line"/>
    </contour>
    <contour>
      <point x="446" y="176" type="line"/>
      <point x="797" y="617" type="line"/>
      <point x="797" y="684" type="line"/>
      <point x="446" y="1126" type="line"/>
      <point x="446" y="935" type="line"/>
      <point x="672" y="649" type="line"/>
      <point x="446" y="367" type="line"/>
    </contour>
  </outline>
</glyph>
<glyph name="threequarters" format="1">
  <advance width="1583"/>
  <unicode hex="00BE"/>
  <outline>
    <contour>
      <point x="301" y="748" type="curve" smooth="yes"/>
      <point x="457" y="748"/>
      <point x="538" y="851"/>
      <point x="538" y="1004" type="curve" smooth="yes"/>
      <point x="538" y="1155"/>
      <point x="459" y="1205"/>
      <point x="379" y="1218" type="curve"/>
      <point x="464" y="1227"/>
      <point x="534" y="1292"/>
      <point x="534" y="1431" type="curve" smooth="yes"/>
      <point x="534" y="1570"/>
      <point x="462" y="1669"/>
      <point x="312" y="1669" type="curve" smooth="yes"/>
      <point x="154" y="1669"/>
      <point x="81" y="1579"/>
      <point x="81" y="1439" type="curve"/>
      <point x="204" y="1441" type="line"/>
      <point x="204" y="1524"/>
      <point x="227" y="1580"/>
      <point x="313" y="1580" type="curve" smooth="yes"/>
      <point x="388" y="1580"/>
      <point x="412" y="1521"/>
      <point x="412" y="1431" type="curve" smooth="yes"/>
      <point x="412" y="1306"/>
      <point x="373" y="1262"/>
      <point x="285" y="1262" type="curve"/>
      <point x="285" y="1172" type="line"/>
      <point x="372" y="1172"/>
      <point x="416" y="1114"/>
      <point x="416" y="1003" type="curve" smooth="yes"/>
      <point x="416" y="892"/>
      <point x="379" y="836"/>
      <point x="304" y="836" type="curve" smooth="yes"/>
      <point x="220" y="836"/>
      <point x="202" y="898"/>
      <point x="202" y="976" type="curve"/>
      <point x="79" y="978" type="line"/>
      <point x="79" y="838"/>
      <point x="153" y="748"/>
    </contour>
    <contour>
      <point x="1279" y="-9" type="line"/>
      <point x="1398" y="-9" type="line"/>
      <point x="1398" y="270" type="line"/>
      <point x="1524" y="270" type="line"/>
      <point x="1524" y="358" type="line"/>
      <point x="1398" y="358" type="line"/>
      <point x="1398" y="1005" type="line"/>
      <point x="1284" y="1005" type="line"/>
      <point x="967" y="356" type="line"/>
      <point x="967" y="270" type="line"/>
      <point x="1279" y="270" type="line"/>
    </contour>
    <contour>
      <point x="437" y="0" type="line"/>
      <point x="568" y="0" type="line"/>
      <point x="1139" y="1658" type="line"/>
      <point x="1009" y="1658" type="line"/>
    </contour>
    <contour>
      <point x="1070" y="358" type="line"/>
      <point x="1279" y="827" type="line"/>
      <point x="1279" y="358" type="line"/>
    </contour>
  </outline>
</glyph>
<glyph name="Hbar" format="1">
  <advance width="1124"/>
  <unicode hex="0126"/>
  <outline>
    <contour>
      <point x="144" y="0" type="line"/>
      <point x="301" y="0" type="line"/>
      <point x="301" y="808" type="line"/>
      <point x="823" y="808" type="line"/>
      <point x="823" y="0" type="line"/>
      <point x="980" y="0" type="line"/>
      <point x="980" y="1295" type="line"/>
      <point x="1065" y="1295" type="line"/>
      <point x="1065" y="1381" type="line"/>
      <point x="980" y="1381" type="line"/>
      <point x="980" y="1658" type="line"/>
      <point x="823" y="1658" type="line"/>
      <point x="823" y="1381" type="line"/>
      <point x="301" y="1381" type="line"/>
      <point x="301" y="1658" type="line"/>
      <point x="144" y="1658" type="line"/>
      <point x="144" y="1381" type="line"/>
      <point x="60" y="1381" type="line"/>
      <point x="60" y="1295" type="line"/>
      <point x="144" y="1295" type="line"/>
    </contour>
    <contour>
      <point x="301" y="923" type="line"/>
      <point x="301" y="1295" type="line"/>
      <point x="823" y="1295" type="line"/>
      <point x="823" y="923" type="line"/>
    </contour>
  </outline>
</glyph>
<glyph name="eng" format="1">
  <advance width="794"/>
  <unicode hex="014B"/>
  <outline>
    <contour>
      <point x="328" y="-341" type="line"/>
      <point x="369" y="-341" type="line" smooth="yes"/>
      <point x="564" y="-341"/>
      <point x="720" y="-255"/>
      <point x="720" y="-12" type="curve" smooth="yes"/>
      <point x="720" y="950" type="line" smooth="yes"/>
      <point x="720" y="1111"/>
      <point x="656" y="1202"/>
      <point x="538" y="1202" type="curve" smooth="yes"/>
      <point x="427" y="1202"/>
      <point x="329" y="1143"/>
      <point x="253" y="1061" type="curve"/>
      <point x="253" y="1184" type="line"/>
      <point x="103" y="1184" type="line"/>
      <point x="103" y="0" type="line"/>
      <point x="253" y="0" type="line"/>
      <point x="253" y="975" type="line"/>
      <point x="315" y="1038"/>
      <point x="388" y="1084"/>
      <point x="457" y="1084" type="curve" smooth="yes"/>
      <point x="533" y="1084"/>
      <point x="570" y="1040"/>
      <point x="570" y="918" type="curve" smooth="yes"/>
      <point x="570" y="-10" type="line" smooth="yes"/>
      <point x="570" y="-146"/>
      <point x="532" y="-224"/>
      <point x="328" y="-224" type="curve"/>
    </contour>
  </outline>
</glyph>
<glyph name="OE" format="1">
  <advance width="1319"/>
  <unicode hex="0152"/>
  <outline>
    <contour>
      <point x="562" y="0" type="curve" smooth="yes"/>
      <point x="1259" y="0" type="line"/>
      <point x="1259" y="120" type="line"/>
      <point x="853" y="120" type="line"/>
      <point x="853" y="806" type="line"/>
      <point x="1187" y="806" type="line"/>
      <point x="1187" y="922" type="line"/>
      <point x="853" y="922" type="line"/>
      <point x="853" y="1536" type="line"/>
      <point x="1257" y="1536" type="line"/>
      <point x="1257" y="1658" type="line"/>
      <point x="553" y="1658" type="line"/>
      <point x="224" y="1658"/>
      <point x="111" y="1466"/>
      <point x="111" y="1158" type="curve" smooth="yes"/>
      <point x="111" y="482" type="line" smooth="yes"/>
      <point x="111" y="188"/>
      <point x="216" y="0"/>
    </contour>
    <contour>
      <point x="565" y="123" type="line"/>
      <point x="318" y="123"/>
      <point x="269" y="255"/>
      <point x="269" y="492" type="curve" smooth="yes"/>
      <point x="269" y="1139" type="line" smooth="yes"/>
      <point x="269" y="1388"/>
      <point x="307" y="1539"/>
      <point x="562" y="1539" type="curve" smooth="yes"/>
      <point x="697" y="1539" type="line"/>
      <point x="697" y="123" type="line"/>
    </contour>
  </outline>
</glyph>
<glyph name="uni0237" format="1">
  <advance width="436"/>
  <unicode hex="0237"/>
  <outline>
    <contour>
      <point x="-34" y="-318" type="line"/>
      <point x="-19" y="-324"/>
      <point x="26" y="-325"/>
      <point x="46" y="-325" type="curve" smooth="yes"/>
      <point x="208" y="-325"/>
      <point x="307" y="-244"/>
      <point x="307" y="-56" type="curve" smooth="yes"/>
      <point x="307" y="1184" type="line"/>
      <point x="157" y="1184" type="line"/>
      <point x="157" y="-43" type="line" smooth="yes"/>
      <point x="157" y="-129"/>
      <point x="142" y="-207"/>
      <point x="17" y="-207" type="curve" smooth="yes"/>
      <point x="9" y="-207"/>
      <point x="-27" y="-206"/>
      <point x="-34" y="-204" type="curve"/>
    </contour>
  </outline>
</glyph>
<glyph name="caron" format="1">
  <advance width="613"/>
  <unicode hex="02C7"/>
  <outline>
    <contour>
      <point x="242" y="1319" type="line"/>
      <point x="374" y="1319" type="line"/>
      <point x="550" y="1658" type="line"/>
      <point x="430" y="1658" type="line"/>
      <point x="309" y="1413" type="line"/>
      <point x="188" y="1658" type="line"/>
      <point x="68" y="1658" type="line"/>
    </contour>
  </outline>
</glyph>
<glyph name="uni030A" format="1">
  <advance width="590"/>
  <unicode hex="030A"/>
  <outline>
    <contour>
      <point x="295" y="1289" type="curve" smooth="yes"/>
      <point x="400" y="1289"/>
      <point x="491" y="1355"/>
      <point x="491" y="1484" type="curve" smooth="yes"/>
      <point x="491" y="1613"/>
      <point x="400" y="1678"/>
      <point x="295" y="1678" type="curve" smooth="yes"/>
      <point x="190" y="1678"/>
      <point x="100" y="1613"/>
      <point x="100" y="1484" type="curve" smooth="yes"/>
      <point x="100" y="1355"/>
      <point x="190" y="1289"/>
    </contour>
    <contour>
      <point x="296" y="1370" type="curve" smooth="yes"/>
      <point x="234" y="1370"/>
      <point x="184" y="1406"/>
      <point x="184" y="1484" type="curve" smooth="yes"/>
      <point x="184" y="1563"/>
      <point x="234" y="1598"/>
      <point x="295" y="1598" type="curve" smooth="yes"/>
      <point x="357" y="1598"/>
      <point x="407" y="1563"/>
      <point x="407" y="1484" type="curve" smooth="yes"/>
      <point x="407" y="1406"/>
      <point x="357" y="1370"/>
    </contour>
  </outline>
</glyph>
<glyph name="Pi" format="1">
  <advance width="1146"/>
  <unicode hex="03A0"/>
  <outline>
    <contour>
      <point x="144" y="0" type="line"/>
      <point x="294" y="0" type="line"/>
      <point x="294" y="1543" type="line"/>
      <point x="852" y="1543" type="line"/>
      <point x="852" y="0" type="line"/>
      <point x="1003" y="0" type="line"/>
      <point x="1003" y="1658" type="line"/>
      <point x="144" y="1658" type="line"/>
    </contour>
  </outline>
</glyph>
<glyph name="pi" format="1">
  <advance width="957"/>
  <unicode hex="03C0"/>
  <outline>
    <contour>
      <point x="309" y="1069" type="line"/>
      <point x="591" y="1069" type="line"/>
      <point x="591" y="288" type="line" smooth="yes"/>
      <point x="591" y="81"/>
      <point x="646" y="-10"/>
      <point x="865" y="-10" type="curve"/>
      <point x="879" y="111" type="line"/>
      <point x="758" y="111"/>
      <point x="741" y="151"/>
      <point x="741" y="326" type="curve" smooth="yes"/>
      <point x="741" y="1069" type="line"/>
      <point x="890" y="1069" type="line"/>
      <point x="890" y="1184" type="line"/>
      <point x="32" y="1184" type="line"/>
      <point x="32" y="1069" type="line"/>
      <point x="159" y="1069" type="line"/>
      <point x="159" y="0" type="line"/>
      <point x="309" y="0" type="line"/>
    </contour>
  </outline>
</glyph>
<glyph name="afii10055" format="1">
  <advance width="454"/>
  <unicode hex="0406"/>
  <outline>
    <contour>
      <point x="151" y="0" type="line"/>
      <point x="305" y="0" type="line"/>
      <point x="305" y="1658" type="line"/>
      <point x="151" y="1658" type="line"/>
    </contour>
  </outline>
</glyph>
<glyph name="afii10021" format="1">
  <advance width="1204"/>
  <unicode hex="0414"/>
  <outline>
    <contour>
      <point x="20" y="-285" type="line"/>
      <point x="143" y="-285" type="line"/>
      <point x="157" y="0" type="line"/>
      <point x="1012" y="0" type="line"/>
      <point x="1027" y="-285" type="line"/>
      <point x="1150" y="-285" type="line"/>
      <point x="1150" y="117" type="line"/>
      <point x="1014" y="117" type="line"/>
      <point x="1014" y="1658" type="line"/>
      <point x="389" y="1658" type="line"/>
      <point x="353" y="1122" type="line" smooth="yes"/>
      <point x="296" y="281"/>
      <point x="216" y="208"/>
      <point x="85" y="117" type="curve"/>
      <point x="20" y="117" type="line"/>
    </contour>
    <contour>
      <point x="244" y="117" type="line"/>
      <point x="360" y="206"/>
      <point x="442" y="258"/>
      <point x="496" y="1088" type="curve" smooth="yes"/>
      <point x="527" y="1540" type="line"/>
      <point x="857" y="1540" type="line"/>
      <point x="857" y="117" type="line"/>
    </contour>
  </outline>
</glyph>
<glyph name="afii10028" format="1">
  <advance width="990"/>
  <unicode hex="041A"/>
  <outline>
    <contour>
      <point x="144" y="0" type="line"/>
      <point x="301" y="0" type="line"/>
      <point x="301" y="813" type="line"/>
      <point x="420" y="813" type="line"/>
      <point x="813" y="0" type="line"/>
      <point x="971" y="0" type="line"/>
      <point x="556" y="860" type="line"/>
      <point x="916" y="1658" type="line"/>
      <point x="757" y="1658" type="line"/>
      <point x="419" y="897" type="line"/>
      <point x="301" y="897" type="line"/>
      <point x="301" y="1658" type="line"/>
      <point x="144" y="1658" type="line"/>
    </contour>
  </outline>
</glyph>
<glyph name="afii10047" format="1">
  <advance width="1036"/>
  <unicode hex="042D"/>
  <outline>
    <contour>
      <point x="506" y="-8" type="curve" smooth="yes"/>
      <point x="837" y="-8"/>
      <point x="925" y="206"/>
      <point x="925" y="511" type="curve" smooth="yes"/>
      <point x="925" y="1170" type="line" smooth="yes"/>
      <point x="925" y="1460"/>
      <point x="843" y="1689"/>
      <point x="506" y="1689" type="curve" smooth="yes"/>
      <point x="196" y="1689"/>
      <point x="112" y="1484"/>
      <point x="112" y="1193" type="curve" smooth="yes"/>
      <point x="112" y="1125" type="line"/>
      <point x="261" y="1125" type="line"/>
      <point x="261" y="1204" type="line" smooth="yes"/>
      <point x="261" y="1420"/>
      <point x="297" y="1563"/>
      <point x="505" y="1563" type="curve" smooth="yes"/>
      <point x="708" y="1563"/>
      <point x="767" y="1441"/>
      <point x="767" y="1195" type="curve" smooth="yes"/>
      <point x="767" y="914" type="line"/>
      <point x="413" y="914" type="line"/>
      <point x="413" y="806" type="line"/>
      <point x="767" y="806" type="line"/>
      <point x="767" y="490" type="line" smooth="yes"/>
      <point x="767" y="267"/>
      <point x="729" y="117"/>
      <point x="505" y="117" type="curve" smooth="yes"/>
      <point x="296" y="117"/>
      <point x="261" y="253"/>
      <point x="261" y="468" type="curve" smooth="yes"/>
      <point x="261" y="538" type="line"/>
      <point x="112" y="538" type="line"/>
      <point x="112" y="463" type="line" smooth="yes"/>
      <point x="112" y="175"/>
      <point x="209" y="-8"/>
    </contour>
  </outline>
</glyph>
<glyph name="afii10067" format="1">
  <advance width="799"/>
  <unicode hex="0432"/>
  <outline>
    <contour>
      <point x="114" y="0" type="line"/>
      <point x="418" y="0" type="line" smooth="yes"/>
      <point x="670" y="0"/>
      <point x="731" y="139"/>
      <point x="731" y="344" type="curve" smooth="yes"/>
      <point x="731" y="477"/>
      <point x="690" y="606"/>
      <point x="554" y="642" type="curve"/>
      <point x="671" y="684"/>
      <point x="705" y="794"/>
      <point x="704" y="899" type="curve" smooth="yes"/>
      <point x="702" y="1046"/>
      <point x="633" y="1184"/>
      <point x="402" y="1184" type="curve" smooth="yes"/>
      <point x="114" y="1184" type="line"/>
    </contour>
    <contour>
      <point x="261" y="115" type="line"/>
      <point x="261" y="574" type="line"/>
      <point x="402" y="574" type="line" smooth="yes"/>
      <point x="508" y="574"/>
      <point x="583" y="534"/>
      <point x="583" y="348" type="curve" smooth="yes"/>
      <point x="583" y="193"/>
      <point x="528" y="115"/>
      <point x="392" y="115" type="curve" smooth="yes"/>
    </contour>
    <contour>
      <point x="261" y="685" type="line"/>
      <point x="261" y="1069" type="line"/>
      <point x="386" y="1069" type="line" smooth="yes"/>
      <point x="505" y="1069"/>
      <point x="569" y="1006"/>
      <point x="569" y="884" type="curve" smooth="yes"/>
      <point x="569" y="753"/>
      <point x="505" y="685"/>
      <point x="411" y="685" type="curve" smooth="yes"/>
    </contour>
  </outline>
</glyph>
<glyph name="afii10083" format="1">
  <advance width="793"/>
  <unicode hex="0441"/>
  <outline>
    <contour>
      <point x="409" y="-19" type="curve" smooth="yes"/>
      <point x="666" y="-19"/>
      <point x="711" y="148"/>
      <point x="711" y="387" type="curve" smooth="yes"/>
      <point x="711" y="445" type="line"/>
      <point x="572" y="445" type="line"/>
      <point x="572" y="380" type="line" smooth="yes"/>
      <point x="572" y="188"/>
      <point x="552" y="94"/>
      <point x="411" y="94" type="curve" smooth="yes"/>
      <point x="277" y="94"/>
      <point x="242" y="181"/>
      <point x="242" y="418" type="curve" smooth="yes"/>
      <point x="242" y="750" type="line" smooth="yes"/>
      <point x="242" y="1000"/>
      <point x="269" y="1090"/>
      <point x="410" y="1090" type="curve" smooth="yes"/>
      <point x="527" y="1090"/>
      <point x="572" y="1030"/>
      <point x="572" y="823" type="curve" smooth="yes"/>
      <point x="572" y="767" type="line"/>
      <point x="711" y="767" type="line"/>
      <point x="711" y="823" type="line" smooth="yes"/>
      <point x="711" y="1050"/>
      <point x="659" y="1202"/>
      <point x="408" y="1202" type="curve" smooth="yes"/>
      <point x="157" y="1202"/>
      <point x="92" y="1054"/>
      <point x="92" y="725" type="curve" smooth="yes"/>
      <point x="92" y="449" type="line" smooth="yes"/>
      <point x="92" y="181"/>
      <point x="133" y="-19"/>
    </contour>
  </outline>
</glyph>
<glyph name="afii10085" format="1">
  <advance width="782"/>
  <unicode hex="0443"/>
  <outline>
    <contour>
      <point x="87" y="-300" type="line"/>
      <point x="297" y="-291"/>
      <point x="419" y="-256"/>
      <point x="467" y="-37" type="curve" smooth="yes"/>
      <point x="739" y="1184" type="line"/>
      <point x="593" y="1184" type="line"/>
      <point x="475" y="557" type="line"/>
      <point x="403" y="153" type="line"/>
      <point x="322" y="562" type="line"/>
      <point x="193" y="1184" type="line"/>
      <point x="50" y="1184" type="line"/>
      <point x="305" y="92" type="line" smooth="yes"/>
      <point x="344" y="-76"/>
      <point x="312" y="-173"/>
      <point x="87" y="-175" type="curve"/>
    </contour>
  </outline>
</glyph>
<glyph name="afii10087" format="1">
  <advance width="763"/>
  <unicode hex="0445"/>
  <outline>
    <contour>
      <point x="26" y="0" type="line"/>
      <point x="170" y="0" type="line"/>
      <point x="377" y="466" type="line"/>
      <point x="598" y="0" type="line"/>
      <point x="740" y="0" type="line"/>
      <point x="459" y="602" type="line"/>
      <point x="736" y="1184" type="line"/>
      <point x="585" y="1184" type="line"/>
      <point x="390" y="750" type="line"/>
      <point x="187" y="1184" type="line"/>
      <point x="39" y="1184" type="line"/>
      <point x="305" y="619" type="line"/>
    </contour>
  </outline>
</glyph>
<glyph name="afii10096" format="1">
  <advance width="1097"/>
  <unicode hex="044E"/>
  <outline>
    <contour>
      <point x="709" y="-19" type="curve" smooth="yes"/>
      <point x="941" y="-19"/>
      <point x="1003" y="142"/>
      <point x="1003" y="428" type="curve" smooth="yes"/>
      <point x="1003" y="756" type="line" smooth="yes"/>
      <point x="1003" y="1042"/>
      <point x="941" y="1202"/>
      <point x="709" y="1202" type="curve" smooth="yes"/>
      <point x="476" y="1202"/>
      <point x="414" y="1040"/>
      <point x="414" y="756" type="curve" smooth="yes"/>
      <point x="414" y="638" type="line"/>
      <point x="250" y="638" type="line"/>
      <point x="250" y="1184" type="line"/>
      <point x="114" y="1184" type="line"/>
      <point x="114" y="0" type="line"/>
      <point x="250" y="0" type="line"/>
      <point x="250" y="537" type="line"/>
      <point x="414" y="537" type="line"/>
      <point x="414" y="428" type="line" smooth="yes"/>
      <point x="414" y="142"/>
      <point x="476" y="-19"/>
    </contour>
    <contour>
      <point x="709" y="94" type="curve" smooth="yes"/>
      <point x="560" y="94"/>
      <point x="549" y="228"/>
      <point x="549" y="420" type="curve" smooth="yes"/>
      <point x="549" y="764" type="line" smooth="yes"/>
      <point x="549" y="956"/>
      <point x="560" y="1090"/>
      <point x="709" y="1090" type="curve" smooth="yes"/>
      <point x="857" y="1090"/>
      <point x="868" y="956"/>
      <point x="868" y="764" type="curve" smooth="yes"/>
      <point x="868" y="420" type="line" smooth="yes"/>
      <point x="868" y="228"/>
      <point x="857" y="94"/>
    </contour>
  </outline>
</glyph>
<glyph name="afii10103" format="1">
  <advance width="474"/>
  <unicode hex="0456"/>
  <outline>
    <contour>
      <point x="164" y="0" type="line"/>
      <point x="314" y="0" type="line"/>
      <point x="314" y="1184" type="line"/>
      <point x="164" y="1184" type="line"/>
    </contour>
    <contour>
      <point x="158" y="1334" type="line"/>
      <point x="324" y="1334" type="line"/>
      <point x="324" y="1533" type="line"/>
      <point x="158" y="1533" type="line"/>
    </contour>
  </outline>
</glyph>
<glyph name="perthousand" format="1">
  <advance width="2129"/>
  <unicode hex="2030"/>
  <outline>
    <contour>
      <point x="343" y="942" type="curve" smooth="yes"/>
      <point x="253" y="942"/>
      <point x="229" y="1025"/>
      <point x="229" y="1138" type="curve" smooth="yes"/>
      <point x="229" y="1381" type="line" smooth="yes"/>
      <point x="229" y="1491"/>
      <point x="250" y="1573"/>
      <point x="343" y="1573" type="curve" smooth="yes"/>
      <point x="435" y="1573"/>
      <point x="458" y="1493"/>
      <point x="458" y="1383" type="curve" smooth="yes"/>
      <point x="458" y="1139" type="line" smooth="yes"/>
      <point x="458" y="1026"/>
      <point x="435" y="942"/>
    </contour>
    <contour>
      <point x="343" y="827" type="curve" smooth="yes"/>
      <point x="528" y="827"/>
      <point x="594" y="951"/>
      <point x="594" y="1142" type="curve" smooth="yes"/>
      <point x="594" y="1381" type="line" smooth="yes"/>
      <point x="594" y="1572"/>
      <point x="527" y="1689"/>
      <point x="343" y="1689" type="curve" smooth="yes"/>
      <point x="159" y="1689"/>
      <point x="92" y="1568"/>
      <point x="92" y="1375" type="curve" smooth="yes"/>
      <point x="92" y="1145" type="line" smooth="yes"/>
      <point x="92" y="956"/>
      <point x="159" y="827"/>
    </contour>
    <contour>
      <point x="1176" y="103" type="curve" smooth="yes"/>
      <point x="1085" y="103"/>
      <point x="1062" y="187"/>
      <point x="1062" y="300" type="curve" smooth="yes"/>
      <point x="1062" y="543" type="line" smooth="yes"/>
      <point x="1062" y="653"/>
      <point x="1083" y="735"/>
      <point x="1176" y="735" type="curve" smooth="yes"/>
      <point x="1268" y="735"/>
      <point x="1290" y="655"/>
      <point x="1290" y="544" type="curve" smooth="yes"/>
      <point x="1290" y="301" type="line" smooth="yes"/>
      <point x="1290" y="188"/>
      <point x="1267" y="103"/>
    </contour>
    <contour>
      <point x="1176" y="-12" type="curve" smooth="yes"/>
      <point x="1360" y="-12"/>
      <point x="1427" y="113"/>
      <point x="1427" y="303" type="curve" smooth="yes"/>
      <point x="1427" y="543" type="line" smooth="yes"/>
      <point x="1427" y="734"/>
      <point x="1359" y="851"/>
      <point x="1176" y="851" type="curve" smooth="yes"/>
      <point x="991" y="851"/>
      <point x="925" y="730"/>
      <point x="925" y="537" type="curve" smooth="yes"/>
      <point x="925" y="307" type="line" smooth="yes"/>
      <point x="925" y="117"/>
      <point x="991" y="-12"/>
    </contour>
    <contour>
      <point x="1786" y="103" type="curve" smooth="yes"/>
      <point x="1696" y="103"/>
      <point x="1672" y="186"/>
      <point x="1672" y="299" type="curve" smooth="yes"/>
      <point x="1672" y="542" type="line" smooth="yes"/>
      <point x="1672" y="652"/>
      <point x="1693" y="734"/>
      <point x="1786" y="734" type="curve" smooth="yes"/>
      <point x="1878" y="734"/>
      <point x="1901" y="654"/>
      <point x="1901" y="544" type="curve" smooth="yes"/>
      <point x="1901" y="300" type="line" smooth="yes"/>
      <point x="1901" y="187"/>
      <point x="1878" y="103"/>
    </contour>
    <contour>
      <point x="1786" y="-13" type="curve" smooth="yes"/>
      <point x="1971" y="-13"/>
      <point x="2037" y="112"/>
      <point x="2037" y="303" type="curve" smooth="yes"/>
      <point x="2037" y="542" type="line" smooth="yes"/>
      <point x="2037" y="733"/>
      <point x="1970" y="850"/>
      <point x="1786" y="850" type="curve" smooth="yes"/>
      <point x="1602" y="850"/>
      <point x="1535" y="729"/>
      <point x="1535" y="536" type="curve" smooth="yes"/>
      <point x="1535" y="306" type="line" smooth="yes"/>
      <point x="1535" y="117"/>
      <point x="1602" y="-13"/>
    </contour>
    <contour>
      <point x="432" y="0" type="line"/>
      <point x="566" y="0" type="line"/>
      <point x="1090" y="1673" type="line"/>
      <point x="957" y="1673" type="line"/>
    </contour>
  </outline>
</glyph>
<glyph name="guilsinglleft" format="1">
  <advance width="668"/>
  <unicode hex="2039"/>
  <outline>
    <contour>
      <point x="584" y="176" type="line"/>
      <point x="584" y="367" type="line"/>
      <point x="328" y="652" type="line"/>
      <point x="584" y="935" type="line"/>
      <point x="584" y="1126" type="line"/>
      <point x="203" y="685" type="line"/>
      <point x="203" y="618" type="line"/>
    </contour>
  </outline>
</glyph>
<glyph name="uni2074" format="1">
  <advance width="730"/>
  <unicode hex="2074"/>
  <outline>
    <contour>
      <point x="417" y="544" type="line"/>
      <point x="536" y="544" type="line"/>
      <point x="536" y="853" type="line"/>
      <point x="662" y="853" type="line"/>
      <point x="662" y="940" type="line"/>
      <point x="536" y="940" type="line"/>
      <point x="536" y="1658" type="line"/>
      <point x="422" y="1658" type="line"/>
      <point x="90" y="938" type="line"/>
      <point x="90" y="853" type="line"/>
      <point x="417" y="853" type="line"/>
    </contour>
    <contour>
      <point x="196" y="940" type="line"/>
      <point x="417" y="1455" type="line"/>
      <point x="417" y="940" type="line"/>
    </contour>
  </outline>
</glyph>
<glyph name="product" format="1">
  <advance width="1146"/>
  <unicode hex="220F"/>
  <outline>
    <contour>
      <point x="144" y="-390" type="line"/>
      <point x="294" y="-390" type="line"/>
      <point x="294" y="1543" type="line"/>
      <point x="852" y="1543" type="line"/>
      <point x="852" y="-390" type="line"/>
      <point x="1003" y="-390" type="line"/>
      <point x="1003" y="1658" type="line"/>
      <point x="144" y="1658" type="line"/>
    </contour>
  </outline>
</glyph>
<glyph name="summation" format="1">
  <advance width="801"/>
  <unicode hex="2211"/>
  <outline>
    <contour>
      <point x="66" y="-390" type="line"/>
      <point x="696" y="-390" type="line"/>
      <point x="696" y="-273" type="line"/>
      <point x="246" y="-273" type="line"/>
      <point x="558" y="655" type="line"/>
      <point x="251" y="1538" type="line"/>
      <point x="686" y="1538" type="line"/>
      <point x="686" y="1658" type="line"/>
      <point x="66" y="1658" type="line"/>
      <point x="414" y="655" type="line"/>
    </contour>
  </outline>
</glyph>
<glyph name="approxequal" format="1">
  <advance width="846"/>
  <unicode hex="2248"/>
  <outline>
    <contour>
      <point x="563" y="551" type="curve" smooth="yes"/>
      <point x="625" y="551"/>
      <point x="701" y="614"/>
      <point x="761" y="677" type="curve"/>
      <point x="706" y="746" type="line"/>
      <point x="646" y="699"/>
      <point x="609" y="670"/>
      <point x="570" y="670" type="curve" smooth="yes"/>
      <point x="498" y="670"/>
      <point x="376" y="782"/>
      <point x="290" y="782" type="curve" smooth="yes"/>
      <point x="229" y="782"/>
      <point x="146" y="719"/>
      <point x="85" y="653" type="curve"/>
      <point x="140" y="582" type="line"/>
      <point x="198" y="636"/>
      <point x="249" y="665"/>
      <point x="280" y="665" type="curve" smooth="yes"/>
      <point x="354" y="665"/>
      <point x="476" y="551"/>
    </contour>
    <contour>
      <point x="563" y="860" type="curve" smooth="yes"/>
      <point x="625" y="860"/>
      <point x="701" y="924"/>
      <point x="761" y="986" type="curve"/>
      <point x="706" y="1055" type="line"/>
      <point x="646" y="1008"/>
      <point x="609" y="979"/>
      <point x="570" y="979" type="curve" smooth="yes"/>
      <point x="498" y="979"/>
      <point x="376" y="1091"/>
      <point x="290" y="1091" type="curve" smooth="yes"/>
      <point x="229" y="1091"/>
      <point x="146" y="1029"/>
      <point x="85" y="962" type="curve"/>
      <point x="140" y="892" type="line"/>
      <point x="198" y="945"/>
      <point x="249" y="974"/>
      <point x="280" y="974" type="curve" smooth="yes"/>
      <point x="354" y="974"/>
      <point x="476" y="860"/>
    </contour>
  </outline>
</glyph>
<glyph name="notequal" format="1">
  <advance width="840"/>
  <unicode hex="2260"/>
  <outline>
    <contour>
      <point x="130" y="0" type="line"/>
      <point x="263" y="0" type="line"/>
      <point x="429" y="584" type="line"/>
      <point x="716" y="584" type="line"/>
      <point x="716" y="703" type="line"/>
      <point x="462" y="703" type="line"/>
      <point x="526" y="927" type="line"/>
      <point x="716" y="927" type="line"/>
      <point x="716" y="1047" type="line"/>
      <point x="559" y="1047" type="line"/>
      <point x="735" y="1658" type="line"/>
      <point x="603" y="1658" type="line"/>
      <point x="427" y="1047" type="line"/>
      <point x="104" y="1047" type="line"/>
      <point x="104" y="927" type="line"/>
      <point x="394" y="927" type="line"/>
      <point x="330" y="703" type="line"/>
      <point x="104" y="703" type="line"/>
      <point x="104" y="584" type="line"/>
      <point x="297" y="584" type="line"/>
    </contour>
  </outline>
</glyph>
